<svg width="1440" height="1024" viewBox="0 0 1440 1024" fill="none" xmlns="http://www.w3.org/2000/svg">
<g filter="url(#filter0_d_49_35)">
<path d="M53.3114 227.372C54.0788 225.458 56.7661 225.664 57.2505 227.676L59.8063 238.288C59.9723 238.977 60.4573 239.537 61.102 239.784L71.1395 243.625C73.0966 244.374 72.8854 247.302 70.8425 247.743L60.3649 250.005C59.692 250.15 59.132 250.63 58.869 251.286L54.8191 261.39C54.0517 263.304 51.3644 263.097 50.8801 261.086L48.3242 250.474C48.1582 249.785 47.6732 249.225 47.0285 248.978L36.991 245.137C35.034 244.388 35.2451 241.46 37.288 241.019L47.7656 238.757C48.4385 238.612 48.9985 238.132 49.2616 237.476L53.3114 227.372Z" fill="white"/>
<path d="M1269.72 364.99C1270.27 362.613 1273.62 362.871 1273.82 365.306L1275.27 383.08C1275.34 384.006 1275.99 384.776 1276.86 384.99L1293.66 389.109C1295.96 389.673 1295.71 393.135 1293.35 393.34L1276.15 394.841C1275.25 394.919 1274.51 395.582 1274.3 396.486L1270.32 413.842C1269.77 416.219 1266.42 415.961 1266.22 413.526L1264.77 395.752C1264.69 394.826 1264.05 394.056 1263.18 393.842L1246.38 389.723C1244.08 389.159 1244.33 385.697 1246.68 385.492L1263.89 383.991C1264.78 383.913 1265.53 383.25 1265.73 382.346L1269.72 364.99Z" fill="white"/>
<path d="M220.646 533.656C221.192 531.279 224.543 531.537 224.742 533.971L226.194 551.746C226.27 552.671 226.912 553.441 227.786 553.656L244.583 557.774C246.884 558.338 246.634 561.8 244.278 562.005L227.076 563.506C226.18 563.584 225.435 564.248 225.227 565.151L221.242 582.507C220.696 584.884 217.345 584.626 217.146 582.192L215.694 564.417C215.618 563.492 214.976 562.721 214.102 562.507L197.305 558.389C195.004 557.825 195.254 554.363 197.61 554.157L214.812 552.657C215.708 552.579 216.453 551.915 216.661 551.012L220.646 533.656Z" fill="white"/>
<path d="M71.7404 136.413C71.7404 141.16 68.0165 145.008 63.4227 145.008C58.8289 145.008 55.105 141.16 55.105 136.413C55.105 131.667 58.8289 127.819 63.4227 127.819C68.0165 127.819 71.7404 131.667 71.7404 136.413Z" fill="white"/>
<path d="M259.698 369.857C264.022 371.46 266.269 376.382 264.718 380.849C263.166 385.317 258.403 387.639 254.079 386.036C249.756 384.432 247.508 379.511 249.06 375.043C250.612 370.576 255.375 368.254 259.698 369.857Z" fill="white"/>
<path d="M15.5957 272.85C15.5957 274.63 14.432 276.073 12.9965 276.073C11.5609 276.073 10.3972 274.63 10.3972 272.85C10.3972 271.07 11.5609 269.627 12.9965 269.627C14.432 269.627 15.5957 271.07 15.5957 272.85Z" fill="white"/>
<path d="M365.018 470.544C366.639 471.145 367.561 472.764 367.076 474.16C366.591 475.556 364.884 476.201 363.262 475.599C361.641 474.998 360.719 473.379 361.204 471.983C361.689 470.587 363.397 469.942 365.018 470.544Z" fill="white"/>
<path d="M71.7404 182.608C71.7404 184.388 70.5767 185.831 69.1411 185.831C67.7056 185.831 66.5419 184.388 66.5419 182.608C66.5419 180.828 67.7056 179.386 69.1411 179.386C70.5767 179.386 71.7404 180.828 71.7404 182.608Z" fill="white"/>
<path d="M301.779 385.46C303.4 386.061 304.321 387.681 303.836 389.077C303.352 390.473 301.644 391.117 300.023 390.516C298.401 389.915 297.48 388.296 297.965 386.9C298.45 385.503 300.157 384.859 301.779 385.46Z" fill="white"/>
<path d="M5.19858 111.704C5.19858 113.484 4.03484 114.927 2.59929 114.927C1.16374 114.927 0 113.484 0 111.704C0 109.925 1.16374 108.482 2.59929 108.482C4.03484 108.482 5.19858 109.925 5.19858 111.704Z" fill="white"/>
<path d="M214.714 426.225C216.336 426.827 217.257 428.446 216.772 429.842C216.287 431.238 214.58 431.883 212.959 431.281C211.337 430.68 210.416 429.061 210.901 427.665C211.386 426.269 213.093 425.624 214.714 426.225Z" fill="white"/>
<path d="M102.932 90.2185C102.932 93.1851 100.604 95.59 97.7333 95.59C94.8623 95.59 92.5348 93.1851 92.5348 90.2185C92.5348 87.2519 94.8623 84.8469 97.7333 84.8469C100.604 84.8469 102.932 87.2519 102.932 90.2185Z" fill="white"/>
<path d="M228.153 323.919C230.856 324.921 232.26 327.997 231.291 330.789C230.321 333.581 227.344 335.033 224.642 334.031C221.939 333.028 220.535 329.953 221.505 327.16C222.474 324.368 225.451 322.917 228.153 323.919Z" fill="white"/>
<path d="M220.42 133.191C220.42 136.157 218.092 138.562 215.221 138.562C212.35 138.562 210.023 136.157 210.023 133.191C210.023 130.224 212.35 127.819 215.221 127.819C218.092 127.819 220.42 130.224 220.42 133.191Z" fill="white"/>
<path d="M306.982 224.172C309.684 225.174 311.089 228.25 310.119 231.042C309.149 233.834 306.172 235.286 303.47 234.284C300.767 233.282 299.363 230.206 300.333 227.413C301.302 224.621 304.279 223.17 306.982 224.172Z" fill="white"/>
<path d="M176.752 246.529C176.752 248.606 175.123 250.289 173.113 250.289C171.103 250.289 169.474 248.606 169.474 246.529C169.474 244.453 171.103 242.769 173.113 242.769C175.123 242.769 176.752 244.453 176.752 246.529Z" fill="white"/>
<path d="M395.475 304.923C397.367 305.624 398.35 307.778 397.671 309.732C396.993 311.687 394.909 312.703 393.017 312.001C391.126 311.3 390.142 309.147 390.821 307.192C391.5 305.238 393.584 304.222 395.475 304.923Z" fill="white"/>
<path d="M136.203 361.48C136.203 363.556 134.574 365.24 132.564 365.24C130.554 365.24 128.925 363.556 128.925 361.48C128.925 359.403 130.554 357.72 132.564 357.72C134.574 357.72 136.203 359.403 136.203 361.48Z" fill="white"/>
<path d="M486.491 383.185C488.382 383.886 489.366 386.04 488.687 387.994C488.008 389.949 485.924 390.965 484.033 390.263C482.141 389.562 481.158 387.409 481.836 385.454C482.515 383.499 484.599 382.484 486.491 383.185Z" fill="white"/>
<path d="M95.6539 476.43C95.6539 478.507 94.0247 480.19 92.0149 480.19C90.0051 480.19 88.3759 478.507 88.3759 476.43C88.3759 474.353 90.0051 472.67 92.0149 472.67C94.0247 472.67 95.6539 474.353 95.6539 476.43Z" fill="white"/>
<path d="M577.506 461.447C579.398 462.148 580.381 464.301 579.702 466.256C579.023 468.211 576.939 469.227 575.048 468.525C573.156 467.824 572.173 465.671 572.852 463.716C573.531 461.761 575.614 460.746 577.506 461.447Z" fill="white"/>
<path d="M16.6355 391.56C16.6355 393.637 15.0062 395.32 12.9965 395.32C10.9867 395.32 9.35745 393.637 9.35745 391.56C9.35745 389.484 10.9867 387.8 12.9965 387.8C15.0062 387.8 16.6355 389.484 16.6355 391.56Z" fill="white"/>
<path d="M473.506 509.629C475.397 510.331 476.381 512.484 475.702 514.438C475.023 516.393 472.939 517.409 471.048 516.707C469.156 516.006 468.173 513.853 468.852 511.898C469.53 509.944 471.614 508.928 473.506 509.629Z" fill="white"/>
<path d="M260.969 643.484C260.969 648.231 257.245 652.078 252.651 652.078C248.057 652.078 244.333 648.231 244.333 643.484C244.333 638.737 248.057 634.89 252.651 634.89C257.245 634.89 260.969 638.737 260.969 643.484Z" fill="white"/>
<path d="M448.927 876.928C453.25 878.531 455.498 883.452 453.946 887.92C452.394 892.387 447.632 894.709 443.308 893.106C438.984 891.503 436.737 886.582 438.288 882.114C439.84 877.646 444.603 875.324 448.927 876.928Z" fill="white"/>
<path d="M204.824 779.92C204.824 781.7 203.66 783.143 202.225 783.143C200.789 783.143 199.626 781.7 199.626 779.92C199.626 778.14 200.789 776.697 202.225 776.697C203.66 776.697 204.824 778.14 204.824 779.92Z" fill="white"/>
<path d="M554.246 977.614C555.868 978.215 556.789 979.835 556.304 981.231C555.819 982.627 554.112 983.271 552.491 982.67C550.869 982.069 549.948 980.45 550.433 979.053C550.918 977.657 552.625 977.013 554.246 977.614Z" fill="white"/>
<path d="M260.969 689.679C260.969 691.459 259.805 692.902 258.37 692.902C256.934 692.902 255.77 691.459 255.77 689.679C255.77 687.899 256.934 686.456 258.37 686.456C259.805 686.456 260.969 687.899 260.969 689.679Z" fill="white"/>
<path d="M491.007 892.531C492.628 893.132 493.55 894.751 493.065 896.147C492.58 897.543 490.872 898.188 489.251 897.587C487.63 896.985 486.708 895.366 487.193 893.97C487.678 892.574 489.386 891.93 491.007 892.531Z" fill="white"/>
<path d="M194.427 618.775C194.427 620.555 193.263 621.998 191.828 621.998C190.392 621.998 189.228 620.555 189.228 618.775C189.228 616.995 190.392 615.552 191.828 615.552C193.263 615.552 194.427 616.995 194.427 618.775Z" fill="white"/>
<path d="M403.943 933.296C405.564 933.897 406.486 935.516 406.001 936.913C405.516 938.309 403.808 938.953 402.187 938.352C400.566 937.751 399.644 936.131 400.129 934.735C400.614 933.339 402.321 932.695 403.943 933.296Z" fill="white"/>
<path d="M292.16 597.289C292.16 600.256 289.833 602.661 286.962 602.661C284.091 602.661 281.763 600.256 281.763 597.289C281.763 594.322 284.091 591.917 286.962 591.917C289.833 591.917 292.16 594.322 292.16 597.289Z" fill="white"/>
<path d="M417.382 830.989C420.084 831.991 421.489 835.067 420.519 837.86C419.549 840.652 416.572 842.103 413.87 841.101C411.168 840.099 409.763 837.023 410.733 834.231C411.703 831.439 414.68 829.987 417.382 830.989Z" fill="white"/>
<path d="M409.648 640.261C409.648 643.228 407.321 645.633 404.45 645.633C401.579 645.633 399.251 643.228 399.251 640.261C399.251 637.294 401.579 634.89 404.45 634.89C407.321 634.89 409.648 637.294 409.648 640.261Z" fill="white"/>
<path d="M496.21 731.242C498.912 732.244 500.317 735.32 499.347 738.113C498.377 740.905 495.401 742.356 492.698 741.354C489.996 740.352 488.591 737.276 489.561 734.484C490.531 731.692 493.508 730.24 496.21 731.242Z" fill="white"/>
<path d="M365.98 753.6C365.98 755.677 364.351 757.36 362.341 757.36C360.331 757.36 358.702 755.677 358.702 753.6C358.702 751.523 360.331 749.84 362.341 749.84C364.351 749.84 365.98 751.523 365.98 753.6Z" fill="white"/>
<path d="M584.704 811.994C586.596 812.695 587.579 814.848 586.9 816.803C586.221 818.757 584.137 819.773 582.246 819.072C580.354 818.37 579.371 816.217 580.05 814.263C580.728 812.308 582.812 811.292 584.704 811.994Z" fill="white"/>
<path d="M325.431 868.55C325.431 870.627 323.802 872.31 321.792 872.31C319.782 872.31 318.153 870.627 318.153 868.55C318.153 866.474 319.782 864.79 321.792 864.79C323.802 864.79 325.431 866.474 325.431 868.55Z" fill="white"/>
<path d="M675.719 890.256C677.611 890.957 678.594 893.11 677.915 895.065C677.236 897.019 675.153 898.035 673.261 897.334C671.369 896.632 670.386 894.479 671.065 892.525C671.744 890.57 673.828 889.554 675.719 890.256Z" fill="white"/>
<path d="M284.882 983.501C284.882 985.577 283.253 987.261 281.243 987.261C279.234 987.261 277.604 985.577 277.604 983.501C277.604 981.424 279.234 979.741 281.243 979.741C283.253 979.741 284.882 981.424 284.882 983.501Z" fill="white"/>
<path d="M766.734 968.518C768.626 969.219 769.609 971.372 768.93 973.327C768.252 975.281 766.168 976.297 764.276 975.596C762.384 974.894 761.401 972.741 762.08 970.787C762.759 968.832 764.843 967.816 766.734 968.518Z" fill="white"/>
<path d="M205.864 898.631C205.864 900.707 204.235 902.391 202.225 902.391C200.215 902.391 198.586 900.707 198.586 898.631C198.586 896.554 200.215 894.871 202.225 894.871C204.235 894.871 205.864 896.554 205.864 898.631Z" fill="white"/>
<path d="M662.734 1016.7C664.626 1017.4 665.609 1019.55 664.93 1021.51C664.251 1023.46 662.168 1024.48 660.276 1023.78C658.384 1023.08 657.401 1020.92 658.08 1018.97C658.759 1017.01 660.843 1016 662.734 1016.7Z" fill="white"/>
<path d="M872.322 497.379C872.322 502.125 868.598 505.973 864.004 505.973C859.411 505.973 855.687 502.125 855.687 497.379C855.687 492.632 859.411 488.784 864.004 488.784C868.598 488.784 872.322 492.632 872.322 497.379Z" fill="white"/>
<path d="M1060.28 730.822C1064.6 732.426 1066.85 737.347 1065.3 741.815C1063.75 746.282 1058.98 748.604 1054.66 747.001C1050.34 745.398 1048.09 740.477 1049.64 736.009C1051.19 731.541 1055.96 729.219 1060.28 730.822Z" fill="white"/>
<path d="M816.177 633.815C816.177 635.595 815.014 637.038 813.578 637.038C812.143 637.038 810.979 635.595 810.979 633.815C810.979 632.035 812.143 630.592 813.578 630.592C815.014 630.592 816.177 632.035 816.177 633.815Z" fill="white"/>
<path d="M1165.6 831.509C1167.22 832.11 1168.14 833.729 1167.66 835.126C1167.17 836.522 1165.47 837.166 1163.84 836.565C1162.22 835.964 1161.3 834.345 1161.79 832.948C1162.27 831.552 1163.98 830.908 1165.6 831.509Z" fill="white"/>
<path d="M872.322 543.574C872.322 545.354 871.158 546.797 869.723 546.797C868.287 546.797 867.124 545.354 867.124 543.574C867.124 541.794 868.287 540.351 869.723 540.351C871.158 540.351 872.322 541.794 872.322 543.574Z" fill="white"/>
<path d="M1102.36 746.426C1103.98 747.027 1104.9 748.646 1104.42 750.042C1103.93 751.438 1102.23 752.083 1100.6 751.482C1098.98 750.88 1098.06 749.261 1098.55 747.865C1099.03 746.469 1100.74 745.824 1102.36 746.426Z" fill="white"/>
<path d="M893.116 355.773C893.116 357.553 891.953 358.996 890.517 358.996C889.082 358.996 887.918 357.553 887.918 355.773C887.918 353.993 889.082 352.55 890.517 352.55C891.953 352.55 893.116 353.993 893.116 355.773Z" fill="white"/>
<path d="M1015.3 787.191C1016.92 787.792 1017.84 789.411 1017.35 790.807C1016.87 792.204 1015.16 792.848 1013.54 792.247C1011.92 791.646 1011 790.026 1011.48 788.63C1011.97 787.234 1013.67 786.59 1015.3 787.191Z" fill="white"/>
<path d="M903.514 451.184C903.514 454.151 901.186 456.555 898.315 456.555C895.444 456.555 893.116 454.151 893.116 451.184C893.116 448.217 895.444 445.812 898.315 445.812C901.186 445.812 903.514 448.217 903.514 451.184Z" fill="white"/>
<path d="M1028.74 684.884C1031.44 685.886 1032.84 688.962 1031.87 691.754C1030.9 694.547 1027.93 695.998 1025.22 694.996C1022.52 693.994 1021.12 690.918 1022.09 688.126C1023.06 685.334 1026.03 683.882 1028.74 684.884Z" fill="white"/>
<path d="M1021 494.156C1021 497.123 1018.67 499.527 1015.8 499.527C1012.93 499.527 1010.6 497.123 1010.6 494.156C1010.6 491.189 1012.93 488.784 1015.8 488.784C1018.67 488.784 1021 491.189 1021 494.156Z" fill="white"/>
<path d="M1107.56 585.137C1110.27 586.139 1111.67 589.215 1110.7 592.008C1109.73 594.8 1106.75 596.251 1104.05 595.249C1101.35 594.247 1099.94 591.171 1100.91 588.379C1101.88 585.587 1104.86 584.135 1107.56 585.137Z" fill="white"/>
<path d="M977.333 607.495C977.333 609.571 975.704 611.255 973.694 611.255C971.685 611.255 970.055 609.571 970.055 607.495C970.055 605.418 971.685 603.735 973.694 603.735C975.704 603.735 977.333 605.418 977.333 607.495Z" fill="white"/>
<path d="M1196.06 665.889C1197.95 666.59 1198.93 668.743 1198.25 670.698C1197.57 672.652 1195.49 673.668 1193.6 672.967C1191.71 672.265 1190.72 670.112 1191.4 668.158C1192.08 666.203 1194.17 665.187 1196.06 665.889Z" fill="white"/>
<path d="M936.785 722.445C936.785 724.522 935.155 726.205 933.146 726.205C931.136 726.205 929.507 724.522 929.507 722.445C929.507 720.369 931.136 718.685 933.146 718.685C935.155 718.685 936.785 720.369 936.785 722.445Z" fill="white"/>
<path d="M1287.07 744.15C1288.96 744.852 1289.95 747.005 1289.27 748.96C1288.59 750.914 1286.51 751.93 1284.61 751.229C1282.72 750.527 1281.74 748.374 1282.42 746.42C1283.1 744.465 1285.18 743.449 1287.07 744.15Z" fill="white"/>
<path d="M896.236 837.395C896.236 839.472 894.606 841.156 892.597 841.156C890.587 841.156 888.958 839.472 888.958 837.395C888.958 835.319 890.587 833.635 892.597 833.635C894.606 833.635 896.236 835.319 896.236 837.395Z" fill="white"/>
<path d="M1378.09 822.412C1379.98 823.114 1380.96 825.267 1380.28 827.222C1379.6 829.176 1377.52 830.192 1375.63 829.491C1373.74 828.789 1372.75 826.636 1373.43 824.681C1374.11 822.727 1376.2 821.711 1378.09 822.412Z" fill="white"/>
<path d="M817.217 752.526C817.217 754.602 815.588 756.286 813.578 756.286C811.568 756.286 809.939 754.602 809.939 752.526C809.939 750.449 811.568 748.766 813.578 748.766C815.588 748.766 817.217 750.449 817.217 752.526Z" fill="white"/>
<path d="M1274.09 870.595C1275.98 871.296 1276.96 873.449 1276.28 875.404C1275.6 877.358 1273.52 878.374 1271.63 877.673C1269.74 876.971 1268.75 874.818 1269.43 872.864C1270.11 870.909 1272.2 869.893 1274.09 870.595Z" fill="white"/>
<path d="M393.013 103.11C393.013 107.857 389.289 111.704 384.695 111.704C380.101 111.704 376.377 107.857 376.377 103.11C376.377 98.3635 380.101 94.5157 384.695 94.5157C389.289 94.5157 393.013 98.3635 393.013 103.11Z" fill="white"/>
<path d="M555.388 320.944C559.712 322.547 561.959 327.469 560.407 331.936C558.856 336.404 554.093 338.726 549.769 337.123C545.445 335.52 543.198 330.598 544.749 326.131C546.301 321.663 551.064 319.341 555.388 320.944Z" fill="white"/>
<path d="M336.868 239.546C336.868 241.326 335.704 242.769 334.269 242.769C332.833 242.769 331.67 241.326 331.67 239.546C331.67 237.766 332.833 236.324 334.269 236.324C335.704 236.324 336.868 237.766 336.868 239.546Z" fill="white"/>
<path d="M686.29 437.24C687.912 437.841 688.833 439.461 688.348 440.857C687.863 442.253 686.156 442.897 684.535 442.296C682.913 441.695 681.992 440.076 682.477 438.68C682.962 437.283 684.669 436.639 686.29 437.24Z" fill="white"/>
<path d="M393.013 149.305C393.013 151.085 391.849 152.528 390.414 152.528C388.978 152.528 387.814 151.085 387.814 149.305C387.814 147.525 388.978 146.082 390.414 146.082C391.849 146.082 393.013 147.525 393.013 149.305Z" fill="white"/>
<path d="M623.051 352.157C624.672 352.758 625.594 354.377 625.109 355.773C624.624 357.17 622.916 357.814 621.295 357.213C619.674 356.611 618.752 354.992 619.237 353.596C619.722 352.2 621.43 351.556 623.051 352.157Z" fill="white"/>
<path d="M326.471 78.4011C326.471 80.1811 325.307 81.624 323.872 81.624C322.436 81.624 321.272 80.1811 321.272 78.4011C321.272 76.6212 322.436 75.1782 323.872 75.1782C325.307 75.1782 326.471 76.6212 326.471 78.4011Z" fill="white"/>
<path d="M504.979 432.184C506.6 432.786 507.521 434.405 507.037 435.801C506.552 437.197 504.844 437.841 503.223 437.24C501.601 436.639 500.68 435.02 501.165 433.624C501.65 432.228 503.357 431.583 504.979 432.184Z" fill="white"/>
<path d="M424.204 56.9151C424.204 59.8817 421.877 62.2866 419.006 62.2866C416.135 62.2866 413.807 59.8817 413.807 56.9151C413.807 53.9485 416.135 51.5436 419.006 51.5436C421.877 51.5436 424.204 53.9485 424.204 56.9151Z" fill="white"/>
<path d="M541.692 99.8872C541.692 102.854 539.365 105.259 536.494 105.259C533.623 105.259 531.295 102.854 531.295 99.8872C531.295 96.9206 533.623 94.5157 536.494 94.5157C539.365 94.5157 541.692 96.9206 541.692 99.8872Z" fill="white"/>
<path d="M822.826 135.171C825.529 136.173 826.933 139.249 825.963 142.041C824.994 144.833 822.017 146.284 819.315 145.282C816.612 144.28 815.208 141.204 816.177 138.412C817.147 135.62 820.124 134.169 822.826 135.171Z" fill="white"/>
<path d="M498.024 213.226C498.024 215.303 496.395 216.986 494.385 216.986C492.375 216.986 490.746 215.303 490.746 213.226C490.746 211.149 492.375 209.466 494.385 209.466C496.395 209.466 498.024 211.149 498.024 213.226Z" fill="white"/>
<path d="M457.475 328.176C457.475 330.253 455.846 331.936 453.836 331.936C451.826 331.936 450.197 330.253 450.197 328.176C450.197 326.1 451.826 324.416 453.836 324.416C455.846 324.416 457.475 326.1 457.475 328.176Z" fill="white"/>
<path d="M773.525 379.085C775.416 379.787 776.399 381.94 775.721 383.894C775.042 385.849 772.958 386.865 771.066 386.163C769.175 385.462 768.192 383.309 768.87 381.354C769.549 379.4 771.633 378.384 773.525 379.085Z" fill="white"/>
<path d="M416.926 443.127C416.926 445.203 415.297 446.887 413.287 446.887C411.278 446.887 409.648 445.203 409.648 443.127C409.648 441.05 411.278 439.367 413.287 439.367C415.297 439.367 416.926 441.05 416.926 443.127Z" fill="white"/>
<path d="M981.869 376.816C983.76 377.518 984.744 379.671 984.065 381.625C983.386 383.58 981.302 384.596 979.411 383.894C977.519 383.193 976.536 381.04 977.215 379.085C977.893 377.131 979.977 376.115 981.869 376.816Z" fill="white"/>
<path d="M337.908 358.257C337.908 360.333 336.279 362.017 334.269 362.017C332.259 362.017 330.63 360.333 330.63 358.257C330.63 356.18 332.259 354.497 334.269 354.497C336.279 354.497 337.908 356.18 337.908 358.257Z" fill="white"/>
<path d="M794.778 476.326C796.67 477.027 797.653 479.18 796.974 481.135C796.295 483.09 794.212 484.105 792.32 483.404C790.428 482.703 789.445 480.55 790.124 478.595C790.803 476.64 792.887 475.624 794.778 476.326Z" fill="white"/>
<path d="M582.241 610.181C582.241 614.927 578.517 618.775 573.923 618.775C569.33 618.775 565.606 614.927 565.606 610.181C565.606 605.434 569.33 601.586 573.923 601.586C578.517 601.586 582.241 605.434 582.241 610.181Z" fill="white"/>
<path d="M770.199 843.624C774.523 845.227 776.77 850.149 775.219 854.616C773.667 859.084 768.904 861.406 764.58 859.803C760.256 858.2 758.009 853.278 759.561 848.811C761.112 844.343 765.875 842.021 770.199 843.624Z" fill="white"/>
<path d="M526.097 746.617C526.097 748.397 524.933 749.84 523.497 749.84C522.062 749.84 520.898 748.397 520.898 746.617C520.898 744.837 522.062 743.394 523.497 743.394C524.933 743.394 526.097 744.837 526.097 746.617Z" fill="white"/>
<path d="M875.519 944.311C877.14 944.912 878.062 946.531 877.577 947.927C877.092 949.323 875.384 949.968 873.763 949.367C872.141 948.765 871.22 947.146 871.705 945.75C872.19 944.354 873.897 943.71 875.519 944.311Z" fill="white"/>
<path d="M582.241 656.376C582.241 658.156 581.077 659.599 579.642 659.599C578.206 659.599 577.043 658.156 577.043 656.376C577.043 654.596 578.206 653.153 579.642 653.153C581.077 653.153 582.241 654.596 582.241 656.376Z" fill="white"/>
<path d="M812.279 859.227C813.901 859.829 814.822 861.448 814.337 862.844C813.852 864.24 812.145 864.884 810.523 864.283C808.902 863.682 807.981 862.063 808.466 860.667C808.95 859.271 810.658 858.626 812.279 859.227Z" fill="white"/>
<path d="M515.699 585.472C515.699 587.252 514.536 588.695 513.1 588.695C511.665 588.695 510.501 587.252 510.501 585.472C510.501 583.692 511.665 582.249 513.1 582.249C514.536 582.249 515.699 583.692 515.699 585.472Z" fill="white"/>
<path d="M725.215 899.993C726.837 900.594 727.758 902.213 727.273 903.609C726.788 905.005 725.081 905.65 723.459 905.049C721.838 904.447 720.917 902.828 721.401 901.432C721.886 900.036 723.594 899.391 725.215 899.993Z" fill="white"/>
<path d="M613.433 563.986C613.433 566.952 611.105 569.357 608.234 569.357C605.363 569.357 603.036 566.952 603.036 563.986C603.036 561.019 605.363 558.614 608.234 558.614C611.105 558.614 613.433 561.019 613.433 563.986Z" fill="white"/>
<path d="M738.654 797.686C741.357 798.688 742.761 801.764 741.791 804.556C740.822 807.348 737.845 808.8 735.142 807.798C732.44 806.796 731.036 803.72 732.005 800.928C732.975 798.135 735.952 796.684 738.654 797.686Z" fill="white"/>
<path d="M730.921 606.958C730.921 609.924 728.593 612.329 725.722 612.329C722.851 612.329 720.524 609.924 720.524 606.958C720.524 603.991 722.851 601.586 725.722 601.586C728.593 601.586 730.921 603.991 730.921 606.958Z" fill="white"/>
<path d="M817.482 697.939C820.185 698.941 821.589 702.017 820.62 704.809C819.65 707.601 816.673 709.053 813.971 708.051C811.268 707.049 809.864 703.973 810.834 701.181C811.803 698.388 814.78 696.937 817.482 697.939Z" fill="white"/>
<path d="M687.253 720.297C687.253 722.373 685.623 724.057 683.614 724.057C681.604 724.057 679.975 722.373 679.975 720.297C679.975 718.22 681.604 716.537 683.614 716.537C685.623 716.537 687.253 718.22 687.253 720.297Z" fill="white"/>
<path d="M905.976 778.69C907.868 779.392 908.851 781.545 908.172 783.499C907.493 785.454 905.41 786.47 903.518 785.768C901.626 785.067 900.643 782.914 901.322 780.959C902.001 779.005 904.085 777.989 905.976 778.69Z" fill="white"/>
<path d="M646.704 835.247C646.704 837.324 645.074 839.007 643.065 839.007C641.055 839.007 639.426 837.324 639.426 835.247C639.426 833.17 641.055 831.487 643.065 831.487C645.074 831.487 646.704 833.17 646.704 835.247Z" fill="white"/>
<path d="M996.992 856.952C998.883 857.654 999.866 859.807 999.188 861.761C998.509 863.716 996.425 864.732 994.533 864.03C992.642 863.329 991.658 861.176 992.337 859.221C993.016 857.267 995.1 856.251 996.992 856.952Z" fill="white"/>
<path d="M606.155 950.197C606.155 952.274 604.525 953.957 602.516 953.957C600.506 953.957 598.877 952.274 598.877 950.197C598.877 948.121 600.506 946.437 602.516 946.437C604.525 946.437 606.155 948.121 606.155 950.197Z" fill="white"/>
<path d="M1088.01 935.214C1089.9 935.916 1090.88 938.069 1090.2 940.023C1089.52 941.978 1087.44 942.994 1085.55 942.292C1083.66 941.591 1082.67 939.438 1083.35 937.483C1084.03 935.529 1086.12 934.513 1088.01 935.214Z" fill="white"/>
<path d="M527.136 865.327C527.136 867.404 525.507 869.087 523.497 869.087C521.487 869.087 519.858 867.404 519.858 865.327C519.858 863.251 521.487 861.567 523.497 861.567C525.507 861.567 527.136 863.251 527.136 865.327Z" fill="white"/>
<path d="M984.007 983.396C985.898 984.098 986.881 986.251 986.203 988.206C985.524 990.16 983.44 991.176 981.548 990.475C979.657 989.773 978.673 987.62 979.352 985.665C980.031 983.711 982.115 982.695 984.007 983.396Z" fill="white"/>
<path d="M1374.81 223.475C1370.04 225.552 1364.72 223.665 1362.92 219.26C1361.12 214.855 1363.53 209.6 1368.29 207.523C1373.05 205.446 1378.37 207.333 1380.17 211.738C1381.97 216.143 1379.57 221.398 1374.81 223.475Z" fill="white"/>
<path d="M1214.16 505.865C1214.24 510.713 1210.19 515.021 1205.09 515.489C1200 515.956 1195.81 512.405 1195.72 507.557C1195.64 502.709 1199.7 498.401 1204.79 497.934C1209.88 497.466 1214.08 501.018 1214.16 505.865Z" fill="white"/>
<path d="M1215.9 229.341C1214.11 230.12 1212.21 229.636 1211.65 228.259C1211.09 226.883 1212.08 225.135 1213.86 224.356C1215.65 223.577 1217.55 224.062 1218.12 225.438C1218.68 226.815 1217.69 228.562 1215.9 229.341Z" fill="white"/>
<path d="M1154.37 650.918C1154.4 652.736 1153.14 654.328 1151.55 654.474C1149.96 654.62 1148.64 653.265 1148.61 651.447C1148.58 649.629 1149.84 648.037 1151.43 647.891C1153.02 647.745 1154.34 649.1 1154.37 650.918Z" fill="white"/>
<path d="M1328.45 243.69C1326.66 244.469 1324.76 243.984 1324.2 242.607C1323.63 241.231 1324.63 239.484 1326.41 238.705C1328.2 237.926 1330.1 238.41 1330.66 239.787C1331.23 241.163 1330.24 242.911 1328.45 243.69Z" fill="white"/>
<path d="M1214.98 553.045C1215.01 554.862 1213.75 556.454 1212.16 556.6C1210.57 556.746 1209.25 555.391 1209.22 553.573C1209.19 551.755 1210.45 550.163 1212.04 550.017C1213.64 549.871 1214.95 551.227 1214.98 553.045Z" fill="white"/>
<path d="M1373.54 148.854C1371.75 149.633 1369.85 149.149 1369.29 147.772C1368.72 146.395 1369.72 144.648 1371.5 143.869C1373.29 143.09 1375.19 143.575 1375.76 144.951C1376.32 146.328 1375.33 148.075 1373.54 148.854Z" fill="white"/>
<path d="M1139.97 487.396C1140.01 489.214 1138.74 490.806 1137.15 490.952C1135.56 491.098 1134.25 489.743 1134.21 487.925C1134.18 486.107 1135.45 484.515 1137.04 484.369C1138.63 484.223 1139.94 485.579 1139.97 487.396Z" fill="white"/>
<path d="M1433.38 233.17C1430.4 234.468 1427.08 233.288 1425.95 230.535C1424.83 227.782 1426.33 224.498 1429.31 223.2C1432.28 221.902 1435.61 223.081 1436.73 225.834C1437.86 228.587 1436.36 231.872 1433.38 233.17Z" fill="white"/>
<path d="M1247.9 455.514C1247.96 458.544 1245.42 461.237 1242.24 461.529C1239.06 461.82 1236.43 459.601 1236.38 456.571C1236.33 453.541 1238.87 450.849 1242.05 450.557C1245.23 450.265 1247.85 452.484 1247.9 455.514Z" fill="white"/>
<path d="M1436.27 364.635C1433.3 365.933 1429.97 364.754 1428.85 362.001C1427.72 359.248 1429.22 355.963 1432.2 354.665C1435.18 353.367 1438.5 354.547 1439.63 357.3C1440.75 360.053 1439.25 363.337 1436.27 364.635Z" fill="white"/>
<path d="M1378.87 487.454C1378.93 490.484 1376.39 493.177 1373.21 493.469C1370.03 493.761 1367.41 491.541 1367.35 488.511C1367.3 485.482 1369.84 482.789 1373.02 482.497C1376.2 482.205 1378.82 484.424 1378.87 487.454Z" fill="white"/>
<path d="M1305.43 372.358C1303.35 373.267 1301.02 372.442 1300.23 370.514C1299.45 368.587 1300.5 366.288 1302.58 365.379C1304.67 364.471 1306.99 365.296 1307.78 367.224C1308.57 369.151 1307.52 371.45 1305.43 372.358Z" fill="white"/>
<path d="M1332.5 607.649C1332.54 609.77 1330.76 611.655 1328.53 611.859C1326.31 612.063 1324.47 610.51 1324.43 608.389C1324.4 606.268 1326.17 604.383 1328.4 604.179C1330.63 603.974 1332.46 605.528 1332.5 607.649Z" fill="white"/>
<path d="M1174.2 383.778C1172.11 384.686 1169.79 383.861 1169 381.934C1168.21 380.006 1169.26 377.707 1171.35 376.799C1173.43 375.89 1175.76 376.716 1176.55 378.643C1177.33 380.57 1176.28 382.869 1174.2 383.778Z" fill="white"/>
<path d="M1289.61 729.172C1289.65 731.293 1287.87 733.178 1285.65 733.382C1283.42 733.587 1281.58 732.033 1281.55 729.912C1281.51 727.792 1283.28 725.906 1285.51 725.702C1287.74 725.498 1289.57 727.051 1289.61 729.172Z" fill="white"/>
<path d="M1042.96 395.197C1040.88 396.106 1038.55 395.28 1037.76 393.353C1036.98 391.426 1038.03 389.127 1040.11 388.218C1042.2 387.309 1044.52 388.135 1045.31 390.062C1046.1 391.989 1045.05 394.288 1042.96 395.197Z" fill="white"/>
<path d="M1246.72 850.696C1246.76 852.816 1244.98 854.701 1242.76 854.906C1240.53 855.11 1238.69 853.557 1238.66 851.436C1238.62 849.315 1240.4 847.43 1242.62 847.225C1244.85 847.021 1246.69 848.575 1246.72 850.696Z" fill="white"/>
<path d="M1097.18 282.286C1095.1 283.195 1092.77 282.369 1091.98 280.442C1091.2 278.515 1092.25 276.216 1094.33 275.307C1096.41 274.398 1098.74 275.224 1099.53 277.151C1100.32 279.078 1099.27 281.377 1097.18 282.286Z" fill="white"/>
<path d="M1157.64 772.053C1157.67 774.174 1155.9 776.059 1153.67 776.263C1151.44 776.467 1149.61 774.914 1149.57 772.793C1149.54 770.672 1151.31 768.787 1153.54 768.583C1155.77 768.378 1157.6 769.932 1157.64 772.053Z" fill="white"/>
<path d="M1399.84 102.044C1398.87 97.4045 1401.73 92.8314 1406.22 91.83C1410.71 90.8285 1415.13 93.7779 1416.1 98.4176C1417.07 103.057 1414.22 107.63 1409.73 108.632C1405.24 109.633 1400.81 106.684 1399.84 102.044Z" fill="white"/>
<path d="M933.6 144.49C929.046 143.866 925.845 139.545 926.449 134.84C927.054 130.135 931.235 126.826 935.789 127.451C940.343 128.076 943.544 132.396 942.94 137.102C942.335 141.807 938.154 145.115 933.6 144.49Z" fill="white"/>
<path d="M1192.02 186.099C1191.65 184.359 1192.5 182.695 1193.9 182.382C1195.3 182.069 1196.73 183.225 1197.1 184.965C1197.46 186.705 1196.62 188.369 1195.21 188.682C1193.81 188.995 1192.38 187.838 1192.02 186.099Z" fill="white"/>
<path d="M810.092 69.0305C808.384 68.7963 807.153 67.4145 807.341 65.9441C807.53 64.4737 809.068 63.4715 810.776 63.7057C812.483 63.9399 813.714 65.3218 813.526 66.7922C813.337 68.2626 811.799 69.2648 810.092 69.0305Z" fill="white"/>
<path d="M1155.56 286.548C1155.2 284.808 1156.04 283.144 1157.44 282.831C1158.85 282.518 1160.28 283.675 1160.64 285.415C1161.01 287.155 1160.16 288.819 1158.76 289.132C1157.36 289.445 1155.93 288.288 1155.56 286.548Z" fill="white"/>
<path d="M889.281 138.412C887.573 138.178 886.342 136.796 886.531 135.326C886.72 133.855 888.257 132.853 889.965 133.087C891.673 133.322 892.904 134.703 892.715 136.174C892.526 137.644 890.989 138.646 889.281 138.412Z" fill="white"/>
<path d="M1235.08 341.35C1234.72 339.61 1235.56 337.946 1236.97 337.633C1238.37 337.32 1239.8 338.477 1240.17 340.216C1240.53 341.956 1239.69 343.62 1238.28 343.933C1236.88 344.246 1235.45 343.09 1235.08 341.35Z" fill="white"/>
<path d="M966.061 79.5842C964.353 79.35 963.122 77.9681 963.311 76.4977C963.5 75.0273 965.038 74.0252 966.745 74.2594C968.453 74.4936 969.684 75.8754 969.495 77.3458C969.306 78.8162 967.769 79.8184 966.061 79.5842Z" fill="white"/>
<path d="M1143.94 383.658C1143.33 380.759 1145.12 377.9 1147.92 377.274C1150.73 376.649 1153.5 378.492 1154.1 381.392C1154.71 384.292 1152.92 387.15 1150.12 387.776C1147.31 388.402 1144.54 386.558 1143.94 383.658Z" fill="white"/>
<path d="M973.815 182.518C970.969 182.127 968.968 179.427 969.346 176.486C969.723 173.545 972.337 171.478 975.183 171.868C978.029 172.258 980.03 174.959 979.652 177.9C979.275 180.84 976.661 182.908 973.815 182.518Z" fill="white"/>
<path d="M1020.32 367.266C1019.71 364.367 1021.5 361.508 1024.3 360.883C1027.11 360.257 1029.88 362.1 1030.48 365C1031.09 367.9 1029.3 370.758 1026.5 371.384C1023.69 372.01 1020.93 370.166 1020.32 367.266Z" fill="white"/>
<path d="M981.684 321.637C978.838 321.247 976.837 318.546 977.215 315.606C977.592 312.665 980.206 310.597 983.052 310.988C985.898 311.378 987.899 314.078 987.521 317.019C987.144 319.96 984.53 322.028 981.684 321.637Z" fill="white"/>
<path d="M1039.86 246.959C1039.44 244.929 1040.69 242.929 1042.65 242.49C1044.62 242.052 1046.55 243.343 1046.98 245.373C1047.4 247.402 1046.15 249.403 1044.19 249.841C1042.22 250.279 1040.29 248.989 1039.86 246.959Z" fill="white"/>
<path d="M1056.03 125.757C1055.6 123.727 1056.85 121.726 1058.82 121.288C1060.78 120.85 1062.72 122.14 1063.14 124.17C1063.56 126.2 1062.32 128.201 1060.35 128.639C1058.39 129.077 1056.45 127.787 1056.03 125.757Z" fill="white"/>
<path d="M716.365 97.7387C714.372 97.4654 712.972 95.5751 713.236 93.5165C713.501 91.458 715.33 90.0107 717.322 90.2839C719.315 90.5572 720.715 92.4475 720.451 94.506C720.186 96.5646 718.357 98.0119 716.365 97.7387Z" fill="white"/>
<path d="M1072.19 4.55416C1071.77 2.52428 1073.01 0.523564 1074.98 0.0854257C1076.94 -0.352712 1078.88 0.937646 1079.3 2.96752C1079.73 4.9974 1078.48 6.99812 1076.51 7.43626C1074.55 7.87439 1072.61 6.58403 1072.19 4.55416Z" fill="white"/>
<path d="M604.244 124.246C602.252 123.972 600.851 122.082 601.116 120.024C601.38 117.965 603.21 116.518 605.202 116.791C607.194 117.064 608.595 118.954 608.33 121.013C608.066 123.072 606.236 124.519 604.244 124.246Z" fill="white"/>
<path d="M1166.76 70.2872C1166.34 68.2573 1167.58 66.2566 1169.55 65.8184C1171.51 65.3803 1173.45 66.6707 1173.87 68.7005C1174.3 70.7304 1173.05 72.7311 1171.08 73.1693C1169.12 73.6074 1167.18 72.3171 1166.76 70.2872Z" fill="white"/>
<path d="M696.065 54.4755C694.073 54.2023 692.672 52.312 692.936 50.2534C693.201 48.1949 695.03 46.7476 697.022 47.0208C699.015 47.2941 700.415 49.1844 700.151 51.2429C699.887 53.3015 698.057 54.7488 696.065 54.4755Z" fill="white"/>
</g>
<defs>
<filter id="filter0_d_49_35" x="-12" y="-12" width="1464" height="1048" filterUnits="userSpaceOnUse" color-interpolation-filters="sRGB">
<feFlood flood-opacity="0" result="BackgroundImageFix"/>
<feColorMatrix in="SourceAlpha" type="matrix" values="0 0 0 0 0 0 0 0 0 0 0 0 0 0 0 0 0 0 127 0" result="hardAlpha"/>
<feOffset/>
<feGaussianBlur stdDeviation="6"/>
<feComposite in2="hardAlpha" operator="out"/>
<feColorMatrix type="matrix" values="0 0 0 0 1 0 0 0 0 1 0 0 0 0 1 0 0 0 1 0"/>
<feBlend mode="normal" in2="BackgroundImageFix" result="effect1_dropShadow_49_35"/>
<feBlend mode="normal" in="SourceGraphic" in2="effect1_dropShadow_49_35" result="shape"/>
</filter>
</defs>
</svg>
