<svg width="40" height="30" viewBox="0 0 40 30" fill="none" xmlns="http://www.w3.org/2000/svg">
<path fill-rule="evenodd" clip-rule="evenodd" d="M11.6909 0.145754H11.8091C12.6154 0.145716 13.3108 0.145697 13.8815 0.199766C14.485 0.256959 15.0826 0.383574 15.6459 0.723513C16.2729 1.10202 16.7937 1.64643 17.1558 2.302C17.4808 2.89082 17.602 3.51558 17.6567 4.14651C17.7084 4.74317 17.7084 5.47025 17.7084 6.3132V13.5624H22.2917V10.1465C22.2917 9.30359 22.2917 8.5765 22.3434 7.97984C22.398 7.34891 22.5192 6.72416 22.8443 6.13534C23.2063 5.47976 23.7272 4.93535 24.3542 4.55685C24.9174 4.21689 25.5151 4.09029 26.1184 4.0331C26.6891 3.97903 27.3847 3.97905 28.191 3.97909H28.3091C29.1154 3.97905 29.8109 3.97903 30.3816 4.0331C30.985 4.09029 31.5827 4.21691 32.1459 4.55685C32.7729 4.93535 33.2937 5.47976 33.6558 6.13534C33.9808 6.72416 34.102 7.34891 34.1567 7.97984C34.2084 8.57648 34.2084 9.30353 34.2084 10.1464V13.5624H38.3334C39.0927 13.5624 39.7084 14.206 39.7084 14.9999C39.7084 15.7938 39.0927 16.4374 38.3334 16.4374H34.2084V19.8533C34.2084 20.6963 34.2084 21.4234 34.1567 22.0201C34.102 22.6509 33.9808 23.2757 33.6558 23.8645C33.2937 24.52 32.7729 25.0645 32.1459 25.4431C31.5827 25.7829 30.985 25.9096 30.3816 25.9667C29.8109 26.0208 29.1154 26.0208 28.3091 26.0208H28.191C27.3847 26.0208 26.6891 26.0208 26.1184 25.9667C25.5151 25.9096 24.9174 25.7829 24.3542 25.4431C23.7272 25.0645 23.2063 24.52 22.8443 23.8645C22.5192 23.2757 22.398 22.6509 22.3434 22.0201C22.2917 21.4234 22.2917 20.6963 22.2917 19.8533V16.4374H17.7084V23.6866C17.7084 24.5296 17.7084 25.2568 17.6567 25.8534C17.602 26.4842 17.4808 27.109 17.1558 27.6978C16.7937 28.3533 16.2729 28.8979 15.6459 29.2764C15.0826 29.6162 14.485 29.7429 13.8815 29.8C13.3108 29.8541 12.6154 29.8541 11.8091 29.8541H11.691C10.8847 29.8541 10.1892 29.8541 9.61849 29.8C9.015 29.7429 8.41741 29.6162 7.85419 29.2764C7.22711 28.8979 6.70637 28.3533 6.34433 27.6978C6.01915 27.109 5.89806 26.4842 5.84335 25.8534C5.79163 25.2568 5.79165 24.5296 5.79169 23.6866V16.4374H1.66669C0.907302 16.4374 0.291687 15.7938 0.291687 14.9999C0.291687 14.206 0.907302 13.5624 1.66669 13.5624H5.79169V6.37492C5.79169 6.35426 5.79169 6.33367 5.79169 6.31317C5.79165 5.47023 5.79163 4.74315 5.84335 4.14651C5.89806 3.51558 6.01915 2.89082 6.34433 2.302C6.70637 1.64643 7.22711 1.10202 7.85419 0.723513C8.41741 0.383554 9.015 0.256959 9.61849 0.199766C10.1892 0.145697 10.8847 0.145716 11.6909 0.145754ZM8.54169 15.0018V14.9999V14.998V6.37492C8.54169 5.45279 8.54301 4.8573 8.58213 4.40602C8.61953 3.97449 8.68265 3.81782 8.7259 3.7395C8.84659 3.52098 9.02015 3.33951 9.22919 3.21334C9.3041 3.16813 9.45395 3.10215 9.86671 3.06304C10.2984 3.02213 10.868 3.02075 11.75 3.02075C12.6321 3.02075 13.2017 3.02213 13.6333 3.06304C14.0461 3.10215 14.1959 3.16813 14.2709 3.21334C14.4799 3.33951 14.6535 3.52098 14.7741 3.7395C14.8174 3.81784 14.8805 3.97449 14.9179 4.40602C14.957 4.8573 14.9584 5.45279 14.9584 6.37492V23.6249C14.9584 24.547 14.957 25.1425 14.9179 25.5939C14.8805 26.0254 14.8174 26.1819 14.7741 26.2603C14.6535 26.4788 14.4799 26.6603 14.2709 26.7865C14.1959 26.8317 14.0461 26.8976 13.6333 26.9367C13.2017 26.9777 12.6321 26.9791 11.75 26.9791C10.868 26.9791 10.2984 26.9777 9.86671 26.9367C9.45395 26.8976 9.3041 26.8317 9.22919 26.7865C9.02015 26.6603 8.84659 26.4788 8.7259 26.2603C8.68265 26.1819 8.61953 26.0254 8.58213 25.5939C8.54301 25.1425 8.54169 24.547 8.54169 23.6249V15.0018ZM25.0417 19.7916C25.0417 20.7137 25.043 21.3092 25.0822 21.7606C25.1196 22.192 25.1827 22.3486 25.2259 22.427C25.3466 22.6455 25.5202 22.827 25.7292 22.9531C25.8042 22.9984 25.954 23.0643 26.3666 23.1034C26.7984 23.1444 27.368 23.1458 28.25 23.1458C29.132 23.1458 29.7017 23.1444 30.1334 23.1034C30.5461 23.0643 30.6959 22.9984 30.7709 22.9531C30.9799 22.827 31.1535 22.6455 31.2741 22.427C31.3174 22.3486 31.3804 22.192 31.4178 21.7606C31.4571 21.3092 31.4584 20.7137 31.4584 19.7916V10.2083C31.4584 9.28613 31.4571 8.69064 31.4178 8.23936C31.3804 7.80782 31.3174 7.65115 31.2741 7.57284C31.1535 7.35432 30.9799 7.17285 30.7709 7.04667C30.6959 7.00146 30.5461 6.93549 30.1334 6.89637C29.7017 6.85547 29.132 6.85409 28.25 6.85409C27.368 6.85409 26.7984 6.85547 26.3666 6.89637C25.954 6.93549 25.8042 7.00146 25.7292 7.04667C25.5202 7.17285 25.3466 7.35432 25.2259 7.57284C25.1827 7.65115 25.1196 7.80782 25.0822 8.23936C25.043 8.69064 25.0417 9.28613 25.0417 10.2083V19.7916Z" fill="#0C3B69"/>
</svg>
