<svg width="35" height="35" viewBox="0 0 35 35" fill="none" xmlns="http://www.w3.org/2000/svg">
<path fill-rule="evenodd" clip-rule="evenodd" d="M19.5524 17.5C19.5524 20.5491 21.3065 21.9718 23.003 23.345C25.1277 25.0682 27.52 27.0076 27.7671 32.9412H7.22003C7.46709 27.0076 9.85943 25.0682 11.9841 23.345C13.6806 21.9718 15.4347 20.5491 15.4347 17.5C15.4347 14.4509 13.6806 13.0282 11.9841 11.655C9.85943 9.93176 7.46709 7.99236 7.22003 2.05882H27.7671C27.52 7.99236 25.1277 9.93176 23.003 11.655C21.3065 13.0282 19.5524 14.4509 19.5524 17.5ZM24.3 13.2526C26.7706 11.2494 29.8465 8.75618 29.8465 1.02942V0H5.14062V1.0294C5.14062 8.75618 8.21651 11.2494 10.6871 13.2526C12.3053 14.5662 13.3759 15.4329 13.3759 17.5C13.3759 19.5671 12.3053 20.4338 10.6871 21.7474C8.21651 23.7506 5.14062 26.2438 5.14062 33.9706V35H29.8465V33.9706C29.8465 26.2438 26.7706 23.7506 24.3 21.7474C22.6818 20.4338 21.6112 19.5671 21.6112 17.5C21.6112 15.4329 22.6818 14.5662 24.3 13.2526ZM17.0231 23.2361L13.9308 25.7458C12.5761 26.8431 11.4087 27.7881 10.7828 29.8531H24.2043C23.5784 27.7881 22.4111 26.8431 21.0564 25.7458L17.964 23.2361C17.6902 23.0137 17.2969 23.0137 17.0231 23.2361Z" fill="#289533"/>
</svg>
